<svg width="111" height="30" viewBox="0 0 111 30" fill="none" xmlns="http://www.w3.org/2000/svg">
    <path d="M21.9362 6.08031C20.258 6.08031 18.8195 4.70363 18.8195 3.04015C18.8195 1.37667 20.258 0 21.9362 0C23.7342 0 25.1127 1.37667 25.1127 3.04015C25.1127 4.70363 23.7342 6.08031 21.9362 6.08031ZM19.4189 23.805H24.4534V7.74379H19.4189V23.805ZM38.5981 7.74379V8.71893C37.8189 7.97323 36.2606 7.34226 34.4626 7.34226C29.9674 7.34226 26.3114 10.5545 26.3114 15.2008C26.3114 19.9044 29.9674 23.0593 34.4626 23.0593C36.2606 23.0593 37.8189 22.543 38.5981 21.6826V22.6004C38.5981 24.6654 36.6801 25.6979 34.1629 25.6979C32.0052 25.6979 30.1472 25.239 28.4091 24.2639V29.0249C30.5068 29.7706 32.8443 30 34.4026 30C39.4371 30 43.6326 27.9924 43.6326 22.7151V7.68643H38.5981V7.74379ZM38.5981 17.2084C37.8788 18.1836 36.6801 18.6424 35.3616 18.6424C33.2639 18.6424 31.5257 17.4379 31.5257 15.2008C31.5257 13.021 33.2639 11.7591 35.3616 11.7591C36.6801 11.7591 37.8788 12.3327 38.5981 13.2505V17.2084ZM58.1368 24.2065C62.0925 24.2065 64.5499 23.5182 66.5876 22.2562V9.98088H55.6196V14.6845H61.4332V18.8145C60.5942 19.044 59.6352 19.2161 58.2567 19.2161C53.342 19.2161 50.9446 16.0612 50.9446 12.3901C50.9446 8.71893 53.7016 5.56405 58.916 5.56405C61.0736 5.56405 63.1714 6.13767 64.7297 6.94073V1.72084C63.2313 1.14723 61.3134 0.630979 58.6163 0.630979C51.0046 0.630979 45.6104 5.90822 45.6104 12.4474C45.5505 19.1013 50.4652 24.2065 58.1368 24.2065ZM71.4424 6.08031C69.7642 6.08031 68.3258 4.70363 68.3258 3.04015C68.3258 1.37667 69.7642 0 71.4424 0C73.2404 0 74.6189 1.37667 74.6189 3.04015C74.6189 4.70363 73.1805 6.08031 71.4424 6.08031ZM68.9251 23.805H73.9596V7.74379H68.9251V23.805ZM85.2274 14.9713L80.972 7.74379H75.0984L85.1675 24.1491L95.2365 7.74379H89.4828L85.2274 14.9713ZM99.372 16.9216H110.999C111.059 9.92352 106.804 7.39962 102.549 7.39962C98.0535 7.39962 94.0378 9.98088 93.9779 15.7744C93.9779 21.3958 98.1134 24.1491 103.088 24.1491C105.246 24.1491 107.523 23.8623 109.501 22.8872V18.4704C106.984 19.847 105.366 19.9044 103.927 19.9044C101.769 19.847 99.5518 19.2161 99.372 16.9216ZM102.608 11.1281C104.107 11.1281 105.425 11.8164 105.605 13.8241H99.372C99.7316 11.8738 101.11 11.1281 102.608 11.1281ZM13.5453 11.3576C14.744 10.325 15.3433 9.00574 15.3433 7.34226C15.3433 4.24474 12.3466 1.03251 8.03127 1.03251H0V23.8623H10.4287C14.5042 23.8623 17.6209 20.8795 17.6209 17.0937C17.6209 14.7992 16.542 12.3327 13.5453 11.3576ZM5.27427 5.67878H7.67166C9.1101 5.67878 10.129 6.76865 10.129 7.97324C10.129 9.17782 9.1101 10.2103 7.67166 10.2103H5.27427V5.67878ZM9.94919 19.1587H5.27427V14.5698H9.94919C11.3876 14.5698 12.4665 15.6023 12.4665 16.8643C12.4665 18.1262 11.3876 19.1587 9.94919 19.1587Z" fill="black"/>
</svg>
    